# xmcd
#
# Track frame offsets:
#	150
#	16437
#	33807
#	55065
#	76992
#	93010
#	106652
#	122380
#	137817
#	150222
#	162195
#	180317
#	193490
#	211895
#	224745
#
# Disc length: 3303
#
# Revision: 1
# Processed by: cddbd v1.5.1PL0 Copyright (c) Steve Scherf et al.
# Submitted via: ExactAudioCopy v0.95a4
# Normalized: r0:TDELIM( - )
#
DISCID=b70ce50f
DTITLE=Various Artist - Rhythm and Soul n°9
DYEAR=2000
DGENRE=Soul
TTITLE0=Chic - Good Times
TTITLE1=Deee Lite - Groove Is In The Heart
TTITLE2=Galliano - Just Reach
TTITLE3=Kool and The Gang - Get Down On It
TTITLE4=The Commodores - Brick House
TTITLE5=Jr. Walker - Shotgun
TTITLE6=James Brown - Night Train
TTITLE7=Eddie Kendricks - Keep On Truckin'
TTITLE8=Four Tops - It's The Same Old Song
TTITLE9=Otis Redding - Fa Fa Fa Fa Fa (Sad Song)
TTITLE10=The Temptations - Treat Her Like A Lady
TTITLE11=Yvonne Elliman - If I Can't Have You
TTITLE12=Love Unlimited Orchestra - Love's Theme
TTITLE13=Stevie Wonder - My Cherie Amour
TTITLE14=Nina Simone - My Way
EXTD=
EXTT0=
EXTT1=
EXTT2=
EXTT3=
EXTT4=
EXTT5=
EXTT6=
EXTT7=
EXTT8=
EXTT9=
EXTT10=
EXTT11=
EXTT12=
EXTT13=
EXTT14=
PLAYORDER=
